<svg width="62" height="62" viewBox="0 0 62 62" fill="none" xmlns="http://www.w3.org/2000/svg">
<path d="M34.5006 33.9725L56.9959 32.9479C57.4299 32.9298 57.8561 32.8257 58.2495 32.6415C58.6429 32.4573 58.9958 32.1966 59.2876 31.8748C59.581 31.5552 59.8079 31.1805 59.9551 30.7724C60.1024 30.3643 60.1671 29.9311 60.1454 29.4978C60.1053 28.622 59.7191 27.798 59.0716 27.2069C58.4241 26.6158 57.5684 26.3061 56.6926 26.3457L34.2234 27.3691L33.2001 4.9C33.16 4.02421 32.7737 3.20019 32.1262 2.60912C31.4787 2.01804 30.623 1.7083 29.7472 1.74797C29.3137 1.76578 28.8881 1.86958 28.4952 2.05332C28.1022 2.23707 27.7496 2.49711 27.458 2.81832C27.164 3.13816 26.9366 3.51327 26.7889 3.92182C26.6412 4.33036 26.5762 4.76419 26.5977 5.19808L27.6086 27.6809L5.13947 28.7042C4.70546 28.7225 4.27939 28.8267 3.88599 29.0109C3.49259 29.1951 3.13968 29.4556 2.84775 29.7773C2.55429 30.0975 2.32717 30.4727 2.1795 30.8811C2.03184 31.2896 1.96657 31.7233 1.98745 32.1571C2.00697 32.5907 2.11205 33.0162 2.29664 33.409C2.48123 33.8018 2.74168 34.1543 3.06301 34.4461C3.38303 34.7392 3.75774 34.9663 4.16568 35.1144C4.57361 35.2625 5.00675 35.3287 5.4403 35.3091L27.9094 34.2857L28.9328 56.7549C28.9523 57.1885 29.0574 57.6139 29.242 58.0068C29.4266 58.3996 29.687 58.7521 30.0084 59.0438C30.3282 59.3373 30.7028 59.5647 31.1108 59.7128C31.5188 59.8609 31.9521 59.9269 32.3856 59.9069C32.8196 59.8882 33.2455 59.7838 33.6389 59.5996C34.0322 59.4155 34.3852 59.1552 34.6774 58.8338C34.9712 58.5139 35.1985 58.1387 35.3462 57.7302C35.4939 57.3217 35.559 56.8879 35.5377 56.454L34.5006 33.9725Z" fill="#FFBE4D"/>
</svg>
