<svg width="103" height="34" viewBox="0 0 103 34" fill="none" xmlns="http://www.w3.org/2000/svg">
<path d="M15.1763 24.6598C15.1763 23.6928 14.8138 22.9071 14.089 22.3027C13.3944 21.6983 12.5034 21.1543 11.4162 20.6708C10.3591 20.1571 9.19636 19.6433 7.9279 19.1296C6.68963 18.5856 5.52688 17.9359 4.43962 17.1804C3.38257 16.3947 2.49162 15.4277 1.76679 14.2793C1.07215 13.131 0.724836 11.6653 0.724836 9.88234C0.724836 8.34113 0.981549 7.01146 1.49497 5.89333C2.0084 4.74498 2.73324 3.79305 3.66948 3.03756C4.63593 2.28207 5.76849 1.723 7.06715 1.36036C8.36582 0.997725 9.81549 0.816406 11.4162 0.816406C13.2585 0.816406 14.995 0.982616 16.6259 1.31503C18.2568 1.61723 19.6008 2.07053 20.6578 2.67492L18.7098 7.88783C18.0454 7.46476 17.0488 7.08701 15.7199 6.75459C14.391 6.39196 12.9564 6.21064 11.4162 6.21064C9.9665 6.21064 8.84904 6.49773 8.0638 7.0719C7.30876 7.64608 6.93125 8.41668 6.93125 9.38371C6.93125 10.2903 7.27856 11.0458 7.9732 11.6502C8.69803 12.2546 9.58898 12.8137 10.646 13.3274C11.7333 13.8411 12.896 14.37 14.1343 14.9139C15.4028 15.4579 16.5655 16.1227 17.6226 16.9084C18.7098 17.6639 19.6008 18.6159 20.2954 19.7642C21.0203 20.8823 21.3827 22.2876 21.3827 23.9799C21.3827 25.6722 21.0958 27.1378 20.5219 28.3768C19.9783 29.5856 19.1931 30.598 18.1662 31.4139C17.1696 32.2299 15.9464 32.8343 14.4967 33.2271C13.0773 33.62 11.5068 33.8164 9.78529 33.8164C7.52018 33.8164 5.52688 33.6049 3.80539 33.1818C2.0839 32.7587 0.815441 32.3356 0 31.9126L1.9933 26.609C2.32552 26.7903 2.74834 26.9867 3.26176 27.1983C3.80539 27.4098 4.40942 27.6062 5.07385 27.7876C5.73829 27.9689 6.43292 28.12 7.15776 28.2409C7.9128 28.3617 8.68293 28.4222 9.46817 28.4222C11.3105 28.4222 12.7148 28.12 13.6813 27.5156C14.6779 26.881 15.1763 25.929 15.1763 24.6598Z" fill="black"/>
<path d="M23.0259 10.517H26.1518V6.25597L32.0411 4.57877V10.517H37.568V15.5032H32.0411V24.2065C32.0411 25.7779 32.1921 26.9112 32.4941 27.6062C32.8263 28.2711 33.4304 28.6035 34.3062 28.6035C34.9102 28.6035 35.4237 28.5431 35.8465 28.4222C36.2995 28.3013 36.7978 28.12 37.3414 27.8782L38.3834 32.4112C37.568 32.804 36.6166 33.1365 35.5294 33.4084C34.4421 33.6804 33.3397 33.8164 32.2223 33.8164C30.1384 33.8164 28.5981 33.2876 27.6015 32.2299C26.635 31.142 26.1518 29.3741 26.1518 26.9263V15.5032H23.0259V10.517Z" fill="black"/>
<path d="M41.0396 11.8315C42.2477 11.2876 43.6822 10.8645 45.3433 10.5623C47.0044 10.2299 48.741 10.0637 50.5531 10.0637C52.1236 10.0637 53.4373 10.2601 54.4944 10.6529C55.5514 11.0156 56.382 11.5444 56.986 12.2395C57.6202 12.9345 58.0582 13.7656 58.2998 14.7326C58.5716 15.6996 58.7075 16.7876 58.7075 17.9964C58.7075 19.326 58.6622 20.6708 58.5716 22.0307C58.481 23.3604 58.4206 24.6749 58.3904 25.9744C58.3904 27.2738 58.4357 28.5431 58.5263 29.7821C58.6169 30.9909 58.8434 32.1392 59.2058 33.2271H54.4038L53.4524 30.0994H53.2259C52.6219 31.0362 51.7762 31.8521 50.689 32.5472C49.6319 33.212 48.2578 33.5444 46.5665 33.5444C45.5094 33.5444 44.5581 33.3933 43.7124 33.0911C42.8668 32.7587 42.142 32.3054 41.5379 31.7312C40.9339 31.1268 40.4658 30.4318 40.1336 29.6461C39.8013 28.8301 39.6352 27.9235 39.6352 26.9263C39.6352 25.5362 39.9372 24.3727 40.5413 23.4359C41.1755 22.4689 42.0665 21.6983 43.2141 21.1241C44.392 20.5197 45.7812 20.1117 47.3819 19.9002C49.0128 19.6584 50.8249 19.5829 52.8182 19.6735C53.0296 17.9812 52.9088 16.7725 52.4558 16.0472C52.0027 15.2917 50.991 14.9139 49.4205 14.9139C48.2427 14.9139 46.9893 15.0348 45.6604 15.2766C44.3618 15.5183 43.2896 15.8356 42.444 16.2285L41.0396 11.8315ZM48.5145 28.6942C49.6923 28.6942 50.6286 28.4373 51.3232 27.9235C52.0178 27.3796 52.5313 26.8054 52.8635 26.201V23.2546C51.9272 23.1639 51.0212 23.1488 50.1454 23.2093C49.2997 23.2697 48.5447 23.4057 47.8802 23.6172C47.2158 23.8288 46.6873 24.131 46.2947 24.5238C45.902 24.9167 45.7057 25.4153 45.7057 26.0197C45.7057 26.8659 45.9473 27.5307 46.4306 28.0142C46.944 28.4675 47.6386 28.6942 48.5145 28.6942Z" fill="black"/>
<path d="M79.6867 31.7766C78.7806 32.4414 77.6783 32.94 76.3796 33.2724C75.1112 33.6351 73.7974 33.8164 72.4383 33.8164C70.6262 33.8164 69.0859 33.5293 67.8175 32.9551C66.5792 32.381 65.5675 31.5801 64.7822 30.5527C63.997 29.495 63.4232 28.2257 63.0607 26.745C62.7285 25.2642 62.5624 23.6323 62.5624 21.8494C62.5624 18.0115 63.4232 15.065 65.1447 13.0101C66.8661 10.9249 69.3729 9.88234 72.6648 9.88234C74.3259 9.88234 75.6548 10.0183 76.6514 10.2903C77.6783 10.5623 78.5994 10.9098 79.4149 11.3329L78.0105 16.1378C77.3159 15.8054 76.6212 15.5485 75.9266 15.3672C75.2622 15.1859 74.492 15.0953 73.6162 15.0953C71.9853 15.0953 70.747 15.6392 69.9014 16.7271C69.0557 17.7848 68.6329 19.4922 68.6329 21.8494C68.6329 22.8164 68.7386 23.7079 68.95 24.5238C69.1615 25.3398 69.4786 26.0499 69.9014 26.6543C70.3242 27.2587 70.8678 27.7422 71.5323 28.1049C72.2269 28.4373 73.0272 28.6035 73.9333 28.6035C74.9299 28.6035 75.7756 28.4826 76.4702 28.2409C77.1648 27.9689 77.784 27.6516 78.3276 27.2889L79.6867 31.7766Z" fill="black"/>
<path d="M90.7231 23.7985H89.1375V33.1818H83.2482V1.45102H89.1375V20.1722L90.4966 19.5376L95.661 10.517H102.139L96.703 19.1296L94.3926 20.8521L96.8842 22.62L103 33.1818H96.25L90.7231 23.7985Z" fill="black"/>
</svg>
