<svg width="143" height="144" viewBox="0 0 143 144" fill="none" xmlns="http://www.w3.org/2000/svg">
<path d="M3.92559 83.7075C3.15196 83.0018 2.61959 82.0708 2.40368 81.0462C2.20181 80.1015 2.27684 79.1186 2.61977 78.2155C2.9627 77.3124 3.55895 76.5275 4.33697 75.9549L84.7329 16.8417C85.4187 16.3403 86.2206 16.0214 87.0634 15.9148C87.9062 15.8081 88.7622 15.9173 89.5513 16.2321C90.3402 16.5483 91.036 17.0594 91.5738 17.7176C92.1115 18.3758 92.4736 19.1595 92.6261 19.9957L107.101 99.7175C107.245 100.527 107.187 101.36 106.933 102.142C106.679 102.924 106.237 103.632 105.646 104.203C105.052 104.778 104.326 105.197 103.532 105.423C102.737 105.649 101.899 105.676 101.092 105.5L6.22557 84.8857C5.36922 84.7004 4.57628 84.2942 3.92559 83.7075ZM84.2057 29.697L19.2499 77.4539L95.8862 94.102L84.2057 29.697Z" fill="#FDBFBC"/>
</svg>
