<svg width="62" height="88" viewBox="0 0 62 88" fill="none" xmlns="http://www.w3.org/2000/svg">
<path d="M12.5599 7.82248C13.0756 7.38851 13.6772 7.06844 14.3252 6.88326C14.9733 6.69808 15.6532 6.65198 16.3203 6.74797C20.9118 7.38291 25.3318 8.92249 29.3241 11.2775C33.3165 13.6326 36.802 16.7563 39.5787 20.4679C42.3751 24.1639 44.4104 28.378 45.5667 32.8662C46.723 37.3543 46.9772 42.0273 46.3147 46.6144C44.9965 55.8746 40.058 64.2335 32.5833 69.8564C25.1085 75.4794 15.7082 77.9069 6.44554 76.6064C5.18361 76.4273 4.04441 75.7545 3.27831 74.7359C2.51222 73.7172 2.1819 72.4361 2.35996 71.174C2.4483 70.5487 2.65897 69.9469 2.97992 69.403C3.30088 68.8591 3.72584 68.3837 4.23054 68.0041C4.73523 67.6244 5.30975 67.3479 5.92132 67.1903C6.53289 67.0328 7.16951 66.9972 7.79483 67.0857C11.1299 67.5647 14.5268 67.3778 17.7892 66.5358C21.0516 65.6938 24.1147 64.2134 26.8014 62.1803C29.5022 60.1596 31.7757 57.6236 33.4904 54.7189C35.205 51.8142 36.3269 48.5984 36.7911 45.2574C37.2676 41.9215 37.0788 38.5242 36.2355 35.2616C35.3922 31.999 33.9111 28.9358 31.8777 26.2486C29.857 23.5478 27.321 21.2743 24.4163 19.5596C21.5116 17.8449 18.2958 16.7231 14.9548 16.2589C14.3295 16.1709 13.7277 15.9605 13.1837 15.6398C12.6397 15.3192 12.1642 14.8945 11.7843 14.3901C11.4045 13.8857 11.1277 13.3114 10.9698 12.7C10.8119 12.0886 10.7759 11.4521 10.864 10.8268C11.0382 9.65005 11.6424 8.57966 12.5599 7.82248Z" fill="#937AB9"/>
</svg>
