<svg width="103" height="116" viewBox="0 0 103 116" fill="none" xmlns="http://www.w3.org/2000/svg">
<path d="M54.8688 84.7305C52.4981 82.566 50.6172 79.9199 49.3522 76.9694C48.0872 74.019 47.4673 70.8323 47.5339 67.6227C47.5825 65.4666 47.1692 63.3251 46.3215 61.342C45.4739 59.3589 44.2117 57.5801 42.6196 56.1253C41.0255 54.6721 39.1389 53.5766 37.0866 52.9124C35.0343 52.2482 32.8637 52.0305 30.7203 52.2741C27.5307 52.6328 24.3013 52.3057 21.2485 51.3145C18.1956 50.3233 15.3899 48.6911 13.0194 46.5272C10.6486 44.3626 8.7678 41.7165 7.50279 38.7661C6.23779 35.8156 5.61783 32.6289 5.68444 29.4194C5.7331 27.2633 5.31973 25.1217 4.47212 23.1386C3.6245 21.1555 2.36226 19.3768 0.770208 17.9219C-0.823966 16.4687 -2.71049 15.3733 -4.76281 14.709C-6.81512 14.0448 -8.98575 13.8272 -11.1291 14.0707C-12.1038 14.1803 -13.0822 13.8983 -13.849 13.2866C-14.6158 12.6749 -15.1082 11.7836 -15.2179 10.8089C-15.3275 9.83416 -15.0454 8.8558 -14.4337 8.08901C-13.822 7.32222 -12.9308 6.82981 -11.9561 6.72009C-8.76572 6.36152 -5.53555 6.68873 -2.4819 7.67981C0.571745 8.6709 3.3784 10.303 5.75011 12.4668C8.12105 14.6309 10.0017 17.2771 11.2659 20.2278C12.5301 23.1785 13.1486 26.3654 13.0798 29.5748C13.0326 31.7313 13.4469 33.873 14.2949 35.8564C15.1429 37.8397 16.4051 39.6189 17.9968 41.0747C19.5907 42.5273 21.4769 43.6222 23.5287 44.286C25.5805 44.9498 27.7506 45.1672 29.8933 44.9234C33.0837 44.5641 36.3141 44.891 39.3679 45.8821C42.4216 46.8733 45.2282 48.5057 47.5995 50.6701C49.9705 52.8342 51.8511 55.4804 53.1153 58.4311C54.3795 61.3818 54.998 64.5688 54.9292 67.7781C54.8843 69.9334 55.3005 72.0733 56.1499 74.0546C56.9994 76.0359 58.2625 77.8128 59.8546 79.2662C61.4466 80.7195 63.331 81.8159 65.3813 82.4817C67.4316 83.1475 69.6005 83.3675 71.7428 83.1268C74.9329 82.7671 78.163 83.0936 81.2166 84.0846C84.2701 85.0755 87.0765 86.7079 89.4475 88.8724C91.8184 91.0368 93.6992 93.6831 94.9636 96.634C96.228 99.5848 96.8469 102.772 96.7787 105.981C96.7738 106.471 96.6719 106.954 96.479 107.403C96.286 107.853 96.0059 108.26 95.6547 108.6C95.3035 108.941 94.8882 109.208 94.433 109.387C93.9777 109.566 93.4915 109.653 93.0024 109.642C92.5134 109.632 92.0312 109.525 91.5839 109.327C91.1365 109.129 90.7329 108.845 90.3963 108.49C90.0597 108.135 89.7968 107.717 89.623 107.259C89.4491 106.802 89.3676 106.315 89.3833 105.826C89.4294 103.671 89.0141 101.53 88.165 99.5481C87.316 97.5662 86.0529 95.7889 84.4605 94.3352C82.8682 92.8816 80.9833 91.7853 78.9325 91.1199C76.8817 90.4546 74.7122 90.2355 72.5698 90.4774C69.3802 90.8362 66.1507 90.509 63.0979 89.5179C60.0451 88.5267 57.2393 86.8945 54.8688 84.7305Z" fill="#FFBE4D"/>
</svg>
